Coordinates
version=1
nRows=19
nColumns=36
inDegrees=yes

Units are S.I. units (second, meters, Newtons, ...)
If the header above contains a line with 'inDegrees', this indicates whether rotational values are in degrees (yes) or radians (no).

endheader
time	pelvis_tilt	pelvis_list	pelvis_rotation	pelvis_tx	pelvis_ty	pelvis_tz	hip_flexion_r	hip_adduction_r	hip_rotation_r	knee_angle_r	knee_angle_r_beta	ankle_angle_r	subtalar_angle_r	mtp_angle_r	hip_flexion_l	hip_adduction_l	hip_rotation_l	knee_angle_l	knee_angle_l_beta	ankle_angle_l	subtalar_angle_l	mtp_angle_l	lumbar_extension	lumbar_bending	lumbar_rotation	arm_flex_r	arm_add_r	arm_rot_r	elbow_flex_r	pro_sup_r	arm_flex_l	arm_add_l	arm_rot_l	elbow_flex_l	pro_sup_l
      1.99583330	    -34.11024866	     -0.84129833	     -1.51912764	     -0.00600782	      0.57791593	     -0.06891345	    102.39739657	    -12.38454404	     -3.82236447	     91.68945534	      1.60028289	     23.91812273	     -0.50295667	     -7.49999987	    106.62731158	     -9.00946595	      4.91579319	     93.00733708	      1.62328426	     17.91738256	     -4.86759635	     -7.49999987	    -24.19713447	     -0.20860373	     -2.75421549	    112.51834175	    -19.99377138	     43.21573784	     67.68833557	     83.70786800	    285.12168693	   -173.12600217	    212.75843140	     71.48781535	     66.92122240
      2.00000000	    -34.58104021	     -0.71723097	     -1.56113739	     -0.00564590	      0.57688765	     -0.06828772	    102.98608387	    -12.47480465	     -3.71215148	     91.54807681	      1.59781536	     23.80692869	     -0.63091496	     -7.49999987	    107.24344385	     -8.84436719	      4.86478522	     93.18151309	      1.62632421	     17.94224202	     -5.09908878	     -7.49999987	    -23.74797454	     -0.05430457	     -2.72522137	    113.16039680	    -19.81734812	     42.89613340	     67.83074322	     82.56546668	    285.44576674	   -173.21507259	    212.26939802	     71.82373883	     66.46191348
      2.00416670	    -34.71874530	     -0.51210775	     -1.76911835	     -0.00584059	      0.57690537	     -0.06842409	    103.24394019	    -12.42537332	     -3.65883809	     91.35982691	      1.59452978	     23.53052256	     -0.38968492	     -7.49999987	    107.37525805	     -8.93425902	      4.82803451	     93.14578604	      1.62570065	     17.76769799	     -4.95677030	     -7.49999987	    -24.08349261	     -0.16225783	     -2.43196706	    114.70228080	    -19.69736156	     42.51340124	     67.18558534	     81.52089314	    286.62614566	   -173.46754665	    212.51142769	     71.75704088	     66.11913263
      2.00833330	    -34.60796436	     -0.41446417	     -1.76734472	     -0.00603148	      0.57710118	     -0.06801576	    103.30893505	    -12.31293682	     -3.39881951	     91.44456135	      1.59600868	     23.42324637	     -0.36905391	     -7.49999987	    107.15256754	     -9.07004836	      4.68606885	     92.91973565	      1.62175533	     17.68501449	     -4.57295442	     -7.49999987	    -24.48407760	     -0.32042860	     -2.72686707	    115.32666278	    -19.72524478	     42.41607900	     66.16669032	     81.26583880	    288.54752810	   -173.06852807	    215.29794524	     70.69163930	     65.54399956
      2.01250000	    -34.79583682	     -0.32472194	     -1.84863244	     -0.00617375	      0.57668415	     -0.06853855	    103.65267176	    -12.14766838	     -3.20732797	     91.50102697	      1.59699419	     23.29922535	     -0.41797921	     -7.49999987	    107.23360816	     -9.24631967	      4.55049454	     92.73585969	      1.61854609	     17.84181801	     -4.21802962	     -7.49999987	    -24.45278963	     -0.41811710	     -2.81661845	    115.35316445	    -19.77662669	     41.76328866	     66.01901995	     80.45876937	    289.09692887	   -173.24895209	    215.56005377	     70.70989091	     65.18892866
      2.01666670	    -34.79895955	     -0.21503928	     -1.92855631	     -0.00644700	      0.57651259	     -0.06811268	    103.78029165	    -12.07677046	     -3.19855855	     91.54696118	      1.59779589	     23.33820503	     -0.39147565	     -7.49999987	    107.21498039	     -9.44411312	      4.39968908	     92.65978606	      1.61721835	     17.98682628	     -3.91152637	     -7.49999987	    -24.65281673	     -0.74121832	     -3.10906517	    115.05460183	    -19.76292872	     40.59787930	     66.64005719	     79.52418973	    290.04139265	   -172.95428473	    216.72996892	     71.04452075	     64.82293158
      2.02083330	    -34.81619640	     -0.18313688	     -2.02566342	     -0.00286712	      0.57667374	     -0.07313883	    103.78772469	    -12.21427004	     -3.22060279	     91.59808415	      1.59868816	     23.38549807	     -0.37875995	     -7.49999987	    107.15681010	     -9.43656890	      4.24605338	     92.69597511	      1.61784997	     18.07962121	     -3.96643143	     -7.49999987	    -24.59091252	     -0.64143572	     -3.06348942	    114.82659092	    -19.75679654	     40.53663044	     66.74150014	     79.56583552	    290.20179507	   -172.87610486	    216.67852996	     71.14791842	     64.81875365
      2.02500000	    -35.07473881	      0.00422487	     -1.95509291	     -0.00372004	      0.57330077	     -0.07300720	    104.21676984	    -12.57808902	     -2.96889092	     91.86236030	      1.60330065	     23.73234823	      0.36038389	     -7.49999987	    107.38457215	     -9.34935339	      3.97320118	     92.87356599	      1.62094951	     18.49616315	     -4.00849717	     -7.49999987	    -24.16541934	     -0.79971934	     -3.85809802	    113.28065796	    -18.76795605	     37.12555097	     68.44509596	     84.71752596	    290.44153496	   -172.05720327	    216.95799808	     72.41327954	     64.34089235
      2.02916670	    -35.19385241	      0.09311156	     -2.10808992	     -0.00880601	      0.57254940	     -0.07728131	    104.50214154	    -12.72273087	     -2.77309713	     91.70760034	      1.60059958	     23.58624505	      0.67445946	     -7.49999987	    107.83960448	     -9.14567012	      3.82657167	     93.22039294	      1.62700279	     18.58520304	     -4.25687287	     -7.49999987	    -24.04876603	     -0.78275156	     -4.11917681	    113.64924647	    -18.07058407	     37.01486259	     69.01308265	     84.69891612	    291.12053336	   -171.99072931	    216.76661138	     72.37539725	     64.32976708
      2.03333330	    -35.10916170	      0.35621628	     -2.17911075	     -0.01329758	      0.57244313	     -0.07200263	    104.91829691	    -12.64649043	     -2.49206664	     91.75583036	      1.60144135	     23.73510611	      0.82944092	     -7.49999987	    107.88116961	     -9.09908748	      3.72127419	     93.09209601	      1.62476358	     18.31382208	     -4.61245351	     -7.49999987	    -24.40622844	     -1.10845683	     -4.95815376	    113.86566466	    -16.86746139	     35.84694974	     69.84047763	     84.49062701	    292.59166978	   -170.93683163	    217.42661445	     72.86324470	     64.32941927
      2.03750000	    -35.29338360	      0.44015084	     -2.20466010	     -0.01290190	      0.57227043	     -0.07222621	    105.38284533	    -12.50745401	     -2.48338357	     91.72168987	      1.60084548	     23.79025501	      0.67773413	     -7.49999987	    108.31399387	     -8.96582005	      3.86246452	     93.11005896	      1.62507710	     17.93174903	     -4.74313225	     -7.49999987	    -24.25221457	     -1.15273630	     -5.68961814	    114.10381321	    -15.63769107	     35.47275620	     70.36218718	     83.28880584	    293.96624210	   -169.43394063	    218.65195299	     73.58109542	     64.08867759
      2.04166670	    -35.23862183	      0.61368961	     -2.25398647	     -0.01329676	      0.57215323	     -0.07168665	    105.54454554	    -12.25014171	     -2.35980875	     91.65755487	      1.59972612	     23.64938608	      0.27622728	     -7.49999987	    108.24365587	     -8.97558766	      3.88536840	     92.91473880	      1.62166812	     17.86093471	     -4.75483540	     -7.49999987	    -24.46822218	     -1.36594021	     -6.42702028	    115.04566684	    -14.69735421	     35.02294882	     70.01997266	     82.36886306	    295.58284035	   -168.12826061	    220.23824392	     74.01571239	     63.70665339
      2.04583330	    -35.54437592	      0.73409765	     -2.33288513	     -0.01315146	      0.57193694	     -0.07196129	    105.80119320	    -12.06573007	     -2.26598152	     91.50290618	      1.59702699	     23.45262378	     -0.07699111	     -7.49999987	    108.50832444	     -8.98282300	      3.92418548	     92.78232925	      1.61935713	     17.68929837	     -4.92242391	     -7.49999987	    -24.15367377	     -1.47486190	     -6.40093237	    116.29020470	    -14.21421822	     34.82285527	     69.98908500	     81.05730842	    295.95432315	   -168.00344642	    219.95568259	     73.96997950	     63.40744459
      2.05000000	    -35.26298163	      0.97186185	     -2.35665036	     -0.01799217	      0.57164115	     -0.07555338	    105.81601826	    -12.02920942	     -1.93548332	     91.37398894	      1.59477696	     23.24295360	      0.04306462	     -7.49999987	    108.36798923	     -8.77469139	      3.76205663	     92.78954026	      1.61948299	     17.60607966	     -5.21962456	     -7.49999987	    -24.50671080	     -1.58016641	     -7.03865348	    118.86881728	    -13.87848929	     37.16486428	     67.70364471	     81.50272900	    297.96686791	   -166.97100139	    222.82156767	     73.01652869	     63.18425935
      2.05416670	    -35.28512986	      1.05544056	     -2.37166405	     -0.01786420	      0.57180816	     -0.07583226	    106.00959890	    -11.97829449	     -1.69167453	     91.31788224	      1.59379771	     23.11438456	      0.06996735	     -7.49999987	    108.33725801	     -8.86548922	      3.55959475	     92.49599752	      1.61435970	     17.59274564	     -5.06958177	     -7.49999987	    -24.36301849	     -1.55710401	     -7.46807087	    120.44604300	    -13.64812946	     38.73817713	     66.70951811	     80.49524317	    298.85720595	   -166.62193370	    223.71989656	     72.22521082	     62.57450501
      2.05833330	    -35.33283516	      1.13292255	     -2.33606768	     -0.01834441	      0.57178330	     -0.07521004	    106.13097257	    -11.91400980	     -1.48396789	     91.20492535	      1.59182624	     23.13934934	     -0.01147637	     -7.49999987	    108.30523159	     -8.97336525	      3.35722822	     92.31755981	      1.61124538	     17.82857502	     -4.54667716	     -7.49999987	    -24.17059764	     -1.50408814	     -7.21365470	    122.16214920	    -13.96478558	     41.08314362	     66.13472773	     79.43586834	    299.51967273	   -166.96878409	    224.42531646	     70.82694254	     61.98260989
      2.06250000	    -35.53387623	      1.26519517	     -2.36949101	     -0.01802410	      0.57168673	     -0.07538227	    106.36790780	    -11.79693729	     -1.30273281	     91.05526250	      1.58921413	     23.19464098	      0.14720465	     -7.49999987	    108.38389478	     -8.98105563	      3.10779092	     92.25937870	      1.61022992	     17.81924041	     -4.74119741	     -7.49999987	    -23.81152493	     -1.58945774	     -6.56629946	    123.94145337	    -14.28749501	     42.51323334	     64.95916262	     78.43922381	    299.96247268	   -167.77594869	    224.63146062	     69.68314280	     61.73196641
      2.06666670	    -35.46676049	      1.32067014	     -2.37869724	     -0.01854304	      0.57181600	     -0.07476372	    106.28954878	    -11.72776962	     -1.14624229	     91.01824533	      1.58856806	     23.29387456	      0.20676725	     -7.49999987	    108.20224036	     -9.00284524	      2.97824757	     92.19315057	      1.60907403	     17.92447357	     -4.76723071	     -7.49999987	    -24.01712417	     -1.47807829	     -5.55615284	    126.75942492	    -15.57587706	     45.90800741	     64.82253174	     77.86002051	    300.69398227	   -168.66386876	    225.06336430	     68.31410271	     61.47049521
      2.07083330	    -35.52196970	      1.44256789	     -2.42054237	     -0.01828706	      0.57188926	     -0.07480566	    106.35888402	    -11.66750049	     -0.97371389	     90.99153977	      1.58810196	     23.45744455	      0.69174964	     -7.49999987	    108.24431809	     -9.06385477	      2.85455337	     92.18638288	      1.60895591	     17.79082497	     -4.86482970	     -7.49999987	    -23.81544949	     -1.55257891	     -4.91729843	    127.92803506	    -15.94820801	     47.25190181	     63.98621029	     77.15477656	    300.97602004	   -169.01774814	    225.30601433	     67.56055588	     61.37395244
